<svg xmlns="http://www.w3.org/2000/svg" xmlns:xlink="http://www.w3.org/1999/xlink" viewBox="0 0 334.27 60.22"><defs><style>.cls-1{fill:#3271b0;}.cls-2{fill:url(#未命名的渐变_49);}.cls-3{fill:url(#未命名的渐变_6);}.cls-4{fill:url(#未命名的渐变_50);}</style><linearGradient id="未命名的渐变_49" x1="4.61" y1="41.44" x2="60.97" y2="18.52" gradientUnits="userSpaceOnUse"><stop offset="0.37" stop-color="#21afe6"/><stop offset="1" stop-color="#3178bd"/></linearGradient><linearGradient id="未命名的渐变_6" x1="37.07" y1="22.93" x2="43.37" y2="22.93" gradientUnits="userSpaceOnUse"><stop offset="0" stop-color="#21afe6"/><stop offset="1" stop-color="#3178bd"/></linearGradient><linearGradient id="未命名的渐变_50" x1="20.99" y1="23.49" x2="51.8" y2="23.49" gradientUnits="userSpaceOnUse"><stop offset="0" stop-color="#21afe6"/><stop offset="0.27" stop-color="#21ade5"/><stop offset="1" stop-color="#3178bd"/></linearGradient></defs><title>资源 9</title><g id="图层_2" data-name="图层 2"><g id="图层_1-2" data-name="图层 1"><path class="cls-1" d="M73.46,49.71H67.81L84.1,10.26c.43-1.17,1.45-1.74,3.09-1.7s2.68.53,3.14,1.7l16.5,39.45h-5.38L96.23,36.82H78.67ZM87.29,14.49,79.75,33.9H94.92Z"/><path class="cls-1" d="M107.34,20.32h4.22V10.85h2.11c1.88,0,2.84,1,2.88,2.77v6.7h3.83c1.63,0,2.47.75,2.5,2.13v.69h-6.33V42.47q-.17,4.74,3.46,4.36a6.64,6.64,0,0,0,3.46-1.17V47A2.58,2.58,0,0,1,122,49.65a7.6,7.6,0,0,1-3.46.75c-4.26.11-7.08-2.25-7-7.08V23.14h-1.72c-1.63,0-2.47-.76-2.5-2.18Z"/><path class="cls-1" d="M139.41,50.45c-8.83-.53-14.64-5.57-15.14-15.12.36-10.22,6.32-15.47,15.62-15.75,8.7.46,14.32,5.57,14.75,15.33C154.42,45.06,148.64,50.24,139.41,50.45Zm.29-27.34c-6.43.21-9.85,4-10,12.12.25,7.59,3.43,11.08,9.78,11.5,6.25-.25,9.58-3.78,9.76-11.66C148.92,27.23,145.84,23.5,139.7,23.11Z"/><path class="cls-1" d="M319.05,50.45c-8.84-.53-14.65-5.57-15.14-15.12.35-10.22,6.32-15.47,15.62-15.75,8.69.46,14.32,5.57,14.74,15.33C334.06,45.06,328.28,50.24,319.05,50.45Zm.28-27.34c-6.42.21-9.84,4-10,12.12.25,7.59,3.43,11.08,9.78,11.5,6.24-.25,9.58-3.78,9.75-11.66C328.56,27.23,325.47,23.5,319.33,23.11Z"/><path class="cls-1" d="M202.23,49.71H197V29.85c.11-4.54-2.28-5.76-7.18-5.69h-7V49.71h-4.76V24.16H171.7c-4.9-.07-7.3,1.15-7.19,5.69V49.71h-5.07V29.43q-.12-9.21,10.11-9.11h22.56q10.23,0,10.12,9.11Z"/><path class="cls-1" d="M214.94,45.66h23.27a2.13,2.13,0,0,1,2.34,2.18v1.87H210V14q.11-5.33,6-5.43h22.25a2.07,2.07,0,0,1,2.34,2.13v1.73H219.23c-2.31,0-4.26,1.1-4.29,3.19V26.87h21.62c1.63,0,2.47.76,2.5,2.18v1.32H214.94Z"/><path class="cls-1" d="M268.4,40.78l2.11.81c0,1.49-1.73,3.84-2.62,4.87q-3.47,4-10,4.1-13.73-.8-14.42-15.44.63-14.64,13.73-15.38,10.06.11,12.62,9.58l.26.78c-3.58,1.23-4.68-1.37-5.43-2.75-1.73-3-3.52-4-6.71-4-5.93.6-8.8,4.18-9.05,11.67.29,7.38,2.94,11.25,9.75,11.6C262.71,46.74,265.45,44.83,268.4,40.78Zm1.41-11.46-2.58.42c-1.39.08-1.84-1-2.59-2.39"/><path class="cls-1" d="M288,20.32c8.06-.07,12.5,3.48,12.43,10.65V49.71h-4.71V31.87c.25-6-2.8-8.41-9.16-8.2h-6.36v26h-4.82V8.51h1.34c1.88.07,3.41,1,3.48,2.76v9.05Z"/><path class="cls-2" d="M45.23,60.22c-7.78,0-18.9-5-28.31-12.8A56.4,56.4,0,0,1,5,34.17C1.69,28.83,0,23.51,0,18.36c0-7.48,3.63-13,10.51-15.85C15.86.26,22,0,26.07,0,38.26,0,46.48,2.28,51.94,7.18c6.07,5.46,8.9,14.08,8.9,27.14,0,7.76-1,13.59-3,17.82C55.22,57.5,51,60.22,45.23,60.22ZM26.07,3.55C10.92,3.55,3.55,8.39,3.55,18.36c0,8.52,5.69,18.12,15.63,26.32,8.68,7.18,19.15,12,26.05,12,4.34,0,7.41-2,9.38-6.07,1.78-3.69,2.68-9.17,2.68-16.28,0-12-2.45-19.77-7.72-24.5C44.8,5.54,37.33,3.55,26.07,3.55Z"/><path class="cls-3" d="M40.18,26.07a3.17,3.17,0,0,0,3.19-3.19,3.1,3.1,0,0,0-3.19-3.1,3,3,0,0,0-3.11,3.1A3.1,3.1,0,0,0,40.18,26.07Z"/><path class="cls-4" d="M38.05,34.68a27.46,27.46,0,0,1-6.79-.85c-5.11-1.32-8.71-3.84-9.89-6.93v0C19.2,20.8,27,15.32,32.44,13.3A13.34,13.34,0,0,1,43,13.5c5.18,2.46,7.42,7.8,8,9.44a7.7,7.7,0,0,1,.28,6c-.85,1.93-2.73,3.43-5.6,4.47A22.66,22.66,0,0,1,38.05,34.68ZM23.86,26c1.76,4.55,12.86,7.89,20.92,5,2.15-.77,3.52-1.79,4.07-3a5.13,5.13,0,0,0-.32-4l0-.08c-.47-1.35-2.35-5.91-6.64-8a10.72,10.72,0,0,0-8.5-.1,22.27,22.27,0,0,0-7.08,4.33C23.51,22.73,23.43,24.74,23.86,26Z"/></g></g></svg>